<?xml version="1.0" standalone="no"?>
<!DOCTYPE svg PUBLIC "-//W3C//DTD SVG 20010904//EN"
 "http://www.w3.org/TR/2001/REC-SVG-20010904/DTD/svg10.dtd">
<svg version="1.0" xmlns="http://www.w3.org/2000/svg"
 width="230.000000pt" height="57.000000pt" viewBox="0 0 230.000000 57.000000"
 preserveAspectRatio="xMidYMid meet">

<g transform="translate(0.000000,57.000000) scale(0.100000,-0.100000)"
fill="#000000" stroke="none">
<path d="M240 424 c-41 -23 -81 -48 -87 -54 -9 -7 -13 -42 -13 -104 l0 -94 81
-46 c45 -25 88 -46 96 -46 8 0 50 21 93 46 l80 46 0 91 c0 51 -4 97 -8 102 -4
6 -29 24 -57 39 -27 16 -63 36 -80 46 -30 17 -30 17 -105 -26z m130 -20 c0 -2
-10 0 -21 7 -12 6 -33 9 -47 6 -25 -5 -25 -4 -8 9 16 11 23 11 47 -2 16 -8 29
-17 29 -20z m-100 1 c0 -2 -13 -11 -30 -20 -38 -19 -40 -11 -2 9 31 17 32 18
32 11z m160 -136 c3 -37 10 -64 18 -67 9 -3 12 16 12 70 l0 74 -40 23 c-54 30
-51 37 5 9 l44 -23 1 -81 c0 -86 -5 -101 -28 -82 -11 10 -25 6 -68 -17 l-55
-30 -52 28 c-58 30 -82 34 -74 13 4 -10 1 -13 -9 -9 -18 7 -18 19 1 27 11 4
15 21 15 65 l0 59 58 34 57 34 55 -32 55 -32 5 -63z m-230 97 c0 -2 -6 -9 -14
-15 -11 -9 -16 -9 -22 0 -4 7 -3 9 4 5 6 -3 13 -2 17 4 6 10 15 14 15 6z m240
-190 c0 -2 -27 -20 -61 -40 -58 -34 -61 -35 -90 -21 -16 9 -29 18 -29 21 0 2
13 -2 28 -10 27 -14 32 -13 88 19 63 36 64 37 64 31z m-190 -32 c0 -2 -9 0
-20 6 -11 6 -20 13 -20 16 0 2 9 0 20 -6 11 -6 20 -13 20 -16z"/>
<path d="M667 463 c-11 -11 -8 -381 3 -388 7 -4 10 63 10 194 0 111 -1 201 -3
201 -2 0 -7 -3 -10 -7z"/>
<path d="M872 318 c-7 -7 -12 -28 -12 -48 0 -43 14 -60 50 -60 30 0 50 17 50
42 0 13 -7 18 -27 17 -16 0 -22 -3 -15 -6 20 -8 14 -33 -8 -33 -17 0 -20 7
-20 40 0 33 3 40 20 40 11 0 20 -4 20 -10 0 -5 7 -10 15 -10 8 0 15 4 15 8 0
16 -25 32 -50 32 -14 0 -31 -5 -38 -12z"/>
<path d="M980 271 c0 -34 4 -61 10 -61 6 0 10 9 10 19 0 15 8 21 33 23 29 3
32 6 32 38 0 34 -1 35 -42 38 l-43 3 0 -60z m68 22 c-2 -10 -12 -18 -23 -18
-11 0 -21 8 -23 18 -3 13 3 17 23 17 20 0 26 -4 23 -17z"/>
<path d="M1090 282 c0 -54 12 -72 50 -72 38 0 50 18 50 72 0 36 -4 48 -15 48
-11 0 -15 -12 -15 -50 0 -43 -3 -50 -20 -50 -17 0 -20 7 -20 50 0 38 -4 50
-15 50 -11 0 -15 -12 -15 -48z"/>
<path d="M1210 270 c0 -33 4 -60 10 -60 6 0 10 17 11 38 0 36 0 37 16 15 8
-13 21 -23 28 -23 6 0 17 10 23 23 10 20 11 19 11 -15 1 -23 6 -38 14 -38 8 0
12 19 12 60 0 68 -13 78 -42 30 -9 -16 -20 -30 -23 -30 -3 0 -13 14 -22 30
-26 46 -38 37 -38 -30z"/>
<path d="M1350 320 c0 -5 5 -10 10 -10 6 0 10 -18 10 -40 0 -22 -4 -40 -10
-40 -5 0 -10 -4 -10 -10 0 -5 14 -10 30 -10 17 0 30 5 30 10 0 6 -4 10 -10 10
-5 0 -10 18 -10 40 0 22 5 40 10 40 6 0 10 5 10 10 0 6 -13 10 -30 10 -16 0
-30 -4 -30 -10z"/>
<path d="M1430 270 c0 -43 4 -60 13 -60 9 0 12 10 9 30 -2 17 0 30 5 30 5 0
17 -13 26 -30 29 -48 42 -38 42 30 0 65 -21 86 -27 28 l-3 -33 -20 33 c-30 50
-45 42 -45 -28z"/>
<path d="M1550 270 l0 -60 40 0 c22 0 40 5 40 10 0 6 -13 10 -30 10 -20 0 -30
5 -30 15 0 9 9 15 24 15 35 0 42 18 9 22 -39 4 -42 28 -4 28 17 0 31 5 31 10
0 6 -18 10 -40 10 l-40 0 0 -60z"/>
<path d="M1650 271 c0 -34 4 -61 10 -61 6 0 10 9 10 20 0 26 8 25 37 -2 25
-23 44 -18 23 7 -10 12 -10 18 0 29 6 8 10 25 8 38 -2 19 -10 23 -45 26 l-43
3 0 -60z m70 24 c0 -9 -9 -15 -25 -15 -16 0 -25 6 -25 15 0 9 9 15 25 15 16 0
25 -6 25 -15z"/>
<path d="M1772 318 c-20 -20 -13 -38 23 -55 37 -18 37 -36 0 -31 -13 2 -24 -1
-25 -7 0 -5 17 -10 38 -10 31 0 38 4 40 22 3 18 -5 27 -32 39 -39 19 -38 37 2
32 14 -2 27 3 29 10 6 16 -59 16 -75 0z"/>
<path d="M1870 270 c0 -33 4 -60 10 -60 6 0 10 11 10 25 0 20 5 25 25 25 20 0
25 -5 25 -25 0 -14 5 -25 10 -25 6 0 10 27 10 60 0 33 -4 60 -10 60 -5 0 -10
-12 -10 -26 0 -21 -4 -25 -22 -22 -15 2 -24 11 -26 26 -7 46 -22 20 -22 -38z"/>
<path d="M1997 323 c-4 -3 -7 -28 -7 -54 0 -33 4 -49 16 -53 25 -10 59 -7 72
6 16 16 16 80 0 96 -13 13 -70 17 -81 5z m63 -54 c0 -36 -2 -40 -22 -37 -40 5
-37 78 2 78 17 0 20 -6 20 -41z"/>
<path d="M2110 271 c0 -34 4 -61 10 -61 6 0 10 9 10 19 0 15 8 21 33 23 29 3
32 6 32 38 0 34 -1 35 -42 38 l-43 3 0 -60z m68 22 c-2 -10 -12 -18 -23 -18
-11 0 -21 8 -23 18 -3 13 3 17 23 17 20 0 26 -4 23 -17z"/>
</g>
</svg>
